PathFileType	4	(X/Y/Z)	c:/Users/goper/Files/vsCode/490R/osim_files/C06/C06_SSWS_01.trc
DataRate	CameraRate	NumFrames	NumMarkers	Units                	OrigDataRate	OrigDataStartFrame	OrigNumFrames
250.00	250.00	4	36	mm	250.0	1520	3038
                Frame#	Time	LPSIS			LASIS			LTH1			LTH2			LTH3			LTH4			LLFE			LMFE			LSH1			LSH2			LSH3			LSH4			LLMAL			LMMAL			LCAL			LMTP5			LTOE			LMTP1			RPSIS			RASIS			RTH1			RTH2			RTH3			RTH4			RLFE			RMFE			RSH1			RSH2			RSH3			RSH4			RLMAL			RMMAL			RCAL			RMTP1			RTOE			RMTP5		
		X1	Y1	Z1	X2	Y2	Z2	X3	Y3	Z3	X4	Y4	Z4	X5	Y5	Z5	X6	Y6	Z6	X7	Y7	Z7	X8	Y8	Z8	X9	Y9	Z9	X10	Y10	Z10	X11	Y11	Z11	X12	Y12	Z12	X13	Y13	Z13	X14	Y14	Z14	X15	Y15	Z15	X16	Y16	Z16	X17	Y17	Z17	X18	Y18	Z18	X19	Y19	Z19	X20	Y20	Z20	X21	Y21	Z21	X22	Y22	Z22	X23	Y23	Z23	X24	Y24	Z24	X25	Y25	Z25	X26	Y26	Z26	X27	Y27	Z27	X28	Y28	Z28	X29	Y29	Z29	X30	Y30	Z30	X31	Y31	Z31	X32	Y32	Z32	X33	Y33	Z33	X34	Y34	Z34	X35	Y35	Z35	X36	Y36	Z36

1520	6.07600	1000.33411	992.74518	183.93002	824.87958	961.63513	284.62073	834.00812	759.19678	330.62610	836.52759	699.45172	332.10037	908.11389	754.43951	348.14319	899.10333	692.47668	346.44522	902.23322	446.34384	315.64563	902.83954	425.92654	199.39270	1028.60815	422.41306	329.17813	1057.07849	389.51724	325.21167	985.60980	374.79330	332.67349	1023.50421	350.69180	328.76050	1237.42566	240.30301	276.78040	1205.12781	241.97678	203.78612	1261.41052	297.65161	227.72919	1280.46057	116.63493	286.93137	1236.11499	74.40350	228.19989	1246.57251	101.87164	179.93465	1004.40320	995.52576	112.27110	818.56592	976.29816	46.71230	871.30261	772.26166	-37.71104	849.11975	714.20105	-29.92299	797.88672	792.76385	-21.16121	787.18030	734.60760	-18.64039	770.98840	457.44702	35.69574	756.29248	479.17169	140.28680	825.01135	380.90979	20.00882	824.75317	332.87866	22.26990	764.85077	372.82532	30.62940	774.00739	328.35608	30.77641	824.08875	89.88486	80.31018	810.46515	115.78947	155.26038	891.52515	69.68227	128.38644	686.15967	38.52028	167.02431	666.72705	57.65129	119.93591	713.42773	34.54175	52.50368
1521	6.08000	995.58197	993.84186	183.49403	820.19598	962.97101	284.54892	827.16016	760.67413	330.38705	827.02631	698.50500	329.97568	901.19586	755.43646	347.79376	891.42328	693.10718	346.51425	891.85944	447.63327	315.55911	892.02979	426.99652	199.10950	1017.66669	423.25400	328.99142	1046.05786	390.39896	324.76477	974.61096	375.67715	332.22473	1012.47028	351.50967	328.16586	1225.52649	240.23978	275.99792	1193.92786	242.56075	203.29617	1252.00647	297.23328	226.93671	1266.79504	116.35658	287.30450	1221.46436	74.89532	228.95712	1231.34412	101.93003	180.25203	999.64319	996.77783	111.88110	814.46594	979.79498	45.33952	867.84186	772.99280	-37.85643	846.66632	715.40845	-28.77980	794.29376	793.67920	-23.39861	784.06213	735.21057	-17.78023	770.24731	457.43457	35.40490	754.65546	478.56247	139.96066	824.64691	381.07089	19.90679	824.60718	333.13623	22.12287	765.11176	373.62344	29.45857	773.82959	328.35077	30.42904	824.05170	89.96859	80.32415	810.29846	115.84570	155.24008	891.54767	69.76195	128.40277	686.15527	38.49825	167.00172	666.71216	57.59745	119.88522	713.40814	34.48262	52.51451
1522	6.08400	990.82727	994.97156	183.08905	815.64355	964.35938	284.36874	820.26593	762.34912	330.10318	819.36676	700.13306	329.76770	894.19092	756.05927	347.70828	883.72815	694.19513	346.32736	880.52783	448.29712	315.21741	881.22168	428.12534	198.77046	1007.08032	424.82053	328.65637	1035.72693	391.71027	324.27454	963.64886	376.58789	331.83701	1001.51923	352.47403	327.62616	1214.31482	240.58386	275.36542	1182.70166	243.01935	202.81270	1242.87793	297.02847	226.26028	1252.76062	115.84708	287.66742	1206.54993	75.26382	229.68652	1218.52344	101.02733	180.64526	994.85980	998.03888	111.50185	808.76074	979.57416	45.90463	862.84961	772.03680	-37.22662	842.10608	714.12592	-29.36292	791.18646	792.61969	-20.52162	780.82562	735.20538	-18.13191	769.49170	457.40836	35.11721	752.68011	478.30698	139.95061	824.31293	381.30188	19.77790	824.35583	333.33551	22.01904	764.76892	373.64041	29.10178	773.57996	328.27917	30.18526	824.01367	90.06981	80.33025	810.11243	115.93501	155.24304	891.51868	69.82497	128.41576	686.13867	38.48132	166.99750	666.65057	57.54407	119.85860	713.38806	34.42995	52.49829
1523	6.08800	986.15198	996.10236	182.71310	812.07898	965.79077	284.02136	814.48853	764.18878	330.36511	811.81439	701.77545	329.74905	887.17883	756.99347	347.37155	876.07318	695.18018	346.25961	869.79535	449.43851	314.98074	870.32892	429.30341	198.41158	996.09894	425.90762	328.18970	1024.26233	392.53528	323.76306	952.89056	377.57370	331.57159	990.59991	353.55502	327.16211	1204.31628	241.60255	275.15515	1171.39294	243.43996	202.36305	1233.80505	296.99170	225.02010	1239.82239	116.28047	289.01492	1191.41553	75.50244	230.37965	1204.14685	100.53027	181.01398	990.11035	999.25555	111.17483	804.31091	980.60980	45.30354	859.51093	772.78827	-37.29182	843.23163	717.00653	-29.61806	787.51434	792.68207	-20.30660	777.61121	735.18665	-19.01794	768.73639	457.52371	34.96944	752.70911	478.72714	139.15608	823.98663	381.57898	19.59330	824.11102	333.55649	21.85281	764.45416	373.69919	28.74007	773.38226	328.39606	29.73536	823.94012	90.12334	80.35885	809.91479	116.00977	155.22838	891.49194	69.87763	128.39926	686.08337	38.49240	166.98763	666.59271	57.48069	119.81895	713.30420	34.34540	52.61972
